<svg xmlns="http://www.w3.org/2000/svg" xmlns:xlink="http://www.w3.org/1999/xlink" style="vertical-align:-.255ex" width="1.808ex" height="1.759ex" viewBox="0 -647.8 778.5 757.5"><defs><path id="a" stroke-width="1" d="M84 250q0 122 82 200t194 89h35q16 0 35 1t45 0 49 0h155q15-8 15-20 0-9-13-19l-159-1h-81q-75 0-103-4t-72-24q-22-11-42-26t-45-42-40-67-15-87v-5q0-88 61-156 59-64 143-82 20-5 38-5t156-2h159q13-10 13-20 0-12-15-20H480q-30 0-46-1-84 0-145 16T172 45q-88 82-88 205z"/></defs><use fill="currentColor" stroke="currentColor" stroke-width="0" transform="scale(1 -1)" xlink:href="#a"/></svg>